<?xml version="1.0" encoding="utf-8"?>
<!-- Generator: Adobe Illustrator 22.0.1, SVG Export Plug-In . SVG Version: 6.00 Build 0)  -->
<svg version="1.1" id="Layer_1" xmlns="http://www.w3.org/2000/svg" xmlns:xlink="http://www.w3.org/1999/xlink" x="0px" y="0px"
	 viewBox="0 0 516 121.4" style="enable-background:new 0 0 516 121.4;" xml:space="preserve">
<style type="text/css">
	.st0{fill:#99A5B9;}
	.st1{fill:#E9EDF4;}
	.st2{fill:#FFFFFF;}
</style>
<g>
	<g>
		<g>
			<path class="st0" d="M70.8,13.1c-7-7-18.3-7-25.2,0L9,49.7l34.6,34.6l36.5-36.5c3.6-3.6,9.4-3.6,13,0c3.6,3.6,3.6,9.4,0,13
				L56.7,97.3l6.1,6.1l36.5-36.5c7-7,7-18.3,0-25.2L70.8,13.1z"/>
			<path class="st1" d="M89.7,57.3c1.7-1.7,1.7-4.4,0-6.1c-1.7-1.7-4.4-1.7-6.1,0l-40,40L29,76.5c-1.7-1.7-4.4-1.7-6.1,0
				c-1.7,1.7-1.7,4.4,0,6.1l20.8,20.8l6.1-6.1l0,0L89.7,57.3z"/>
		</g>
		<g>
			<g>
				<path class="st2" d="M183.2,40.6c0,4.5-1.2,8.3-3.6,11.5c-2.4,3.2-5.7,5.3-10,6.6v0.2c2.6,0.9,4.7,2.4,6.3,4.5
					c1.6,2.1,3.3,5.6,5,10.3l7.2,19.7h-19.3l-5.6-16.7c-1.3-3.9-2.9-6.6-4.6-8c-1.8-1.5-4.4-2.2-7.8-2.2H144v27h-18V19.6h30
					C174.2,19.6,183.2,26.6,183.2,40.6z M144,52.9h9.9c7.8,0,11.6-3.3,11.6-10c0-6.3-4.1-9.4-12.4-9.4H144V52.9z"/>
				<path class="st2" d="M230.6,44.5c4,3.6,6,8.9,6,15.9v18.2c0,6.2,0.5,11.2,1.6,14.8h-15.6c-0.5-1.9-0.7-4.2-0.7-6.9h-0.2
					c-4,5.5-9.7,8.2-17.1,8.2c-5.6,0-10-1.5-13.3-4.6c-3.3-3-4.9-6.9-4.9-11.6c0-4.6,1.6-8.3,4.8-11.1c3.2-2.8,8.6-4.7,16.1-5.9
					c4.4-0.7,8.6-1.2,12.7-1.5v-1.9c0-2.8-0.7-4.9-2-6.3c-1.3-1.3-3.1-2-5.4-2c-2.4,0-4.2,0.6-5.5,1.9c-1.3,1.3-2,3.1-2,5.4h-16.6
					c0.3-5.3,2.4-9.7,6.4-13.1c4-3.4,9.9-5.1,17.7-5.1C220.6,39.1,226.6,40.9,230.6,44.5z M210.6,70.7c-2.6,0.5-4.4,1.3-5.6,2.3
					c-1.1,1.1-1.7,2.5-1.7,4.4c0,1.9,0.6,3.3,1.8,4.4c1.2,1.1,2.8,1.6,5,1.6c1.4,0,2.7-0.2,4-0.7c1.3-0.4,2.4-1.1,3.3-2
					c1-1.1,1.7-2.3,2.1-3.7c0.3-1.3,0.5-3.2,0.5-5.6v-1.9C216.7,69.8,213.5,70.1,210.6,70.7z"/>
				<path class="st2" d="M272.7,80.2v13c-1.2,0.3-2.6,0.6-4.3,0.8c-1.7,0.2-3.2,0.3-4.5,0.3c-6.6,0-11.5-1.4-14.5-4.2
					c-3-2.8-4.5-7.2-4.5-13.4V53.3h-8.2V40.8h8.2V26.5h17.2v14.2h10v12.6h-10v19.5c0,2.8,0.5,4.9,1.6,6.1c1,1.2,2.7,1.8,5.1,1.8
					C270.3,80.7,271.5,80.5,272.7,80.2z"/>
				<path class="st2" d="M305.2,81.9c1.6-1.2,2.5-2.7,2.8-4.6h17.5c-0.8,3.3-2.3,6.4-4.7,9.1c-2.4,2.7-5.4,4.9-9.1,6.4
					c-3.7,1.6-7.8,2.3-12.4,2.3c-5.7,0-10.7-1.2-14.8-3.6c-4.1-2.4-7.3-5.8-9.4-10.1c-2.1-4.3-3.2-9.2-3.2-14.7
					c0-5.3,1.1-10,3.2-14.2c2.1-4.2,5.3-7.5,9.4-9.9c4.1-2.4,9-3.6,14.6-3.6c6.2,0,11.4,1.5,15.8,4.5c4.4,3,7.5,7.1,9.3,12.4
					c0.8,2,1.3,4.2,1.6,6.4c0.3,2.3,0.5,5,0.5,8.2h-37.5c0.2,4.6,1.2,8,3.1,10c1.9,2,4.3,3,7.2,3C301.6,83.6,303.6,83,305.2,81.9z
					 M292.5,52.9c-1.7,1.7-2.8,4.3-3.3,7.9H309c-0.3-3.5-1.4-6.2-3.2-7.9c-1.8-1.7-4-2.6-6.6-2.6C296.5,50.4,294.3,51.3,292.5,52.9z
					"/>
				<path class="st2" d="M379,21.4c4.8,2.3,8.5,5.6,11.2,9.9c2.7,4.3,4.2,9.2,4.4,14.9H376c-0.4-4-1.8-7.1-4.2-9.3
					c-2.4-2.2-5.5-3.3-9.4-3.3c-4.9,0-8.8,2.1-11.6,6.2c-2.8,4.1-4.2,9.7-4.2,16.9c0,7.1,1.4,12.8,4.2,16.9
					c2.8,4.1,6.6,6.2,11.4,6.2c3.9,0,7-1.1,9.5-3.4c2.5-2.3,3.9-5.5,4.4-9.7h18.8c-0.7,9.1-3.9,16.2-9.8,21.2
					c-5.8,5-13.5,7.5-22.9,7.5c-7.1,0-13.2-1.6-18.3-4.7c-5.2-3.1-9.1-7.6-11.9-13.3c-2.8-5.8-4.2-12.6-4.2-20.6
					c0-8,1.4-14.8,4.2-20.6c2.8-5.8,6.8-10.2,12-13.3c5.2-3.1,11.3-4.7,18.4-4.7C368.7,17.9,374.2,19.1,379,21.4z"/>
				<path class="st2" d="M399.7,33.2V19.6h17.2v13.6H399.7z M399.7,93.5V40.8h17.2v52.7H399.7z"/>
				<path class="st2" d="M454.7,80.2v13c-1.2,0.3-2.6,0.6-4.3,0.8c-1.7,0.2-3.2,0.3-4.5,0.3c-6.6,0-11.5-1.4-14.5-4.2
					c-3-2.8-4.5-7.2-4.5-13.4V53.3h-8.2V40.8h8.2V26.5h17.2v14.2h26.5v12.6h-26.5v19.5c0,2.8,0.5,4.9,1.6,6.1c1,1.2,2.7,1.8,5.1,1.8
					C452.2,80.7,453.5,80.5,454.7,80.2z"/>
				<path class="st2" d="M485.5,105c-2.2,3-4.8,5.2-7.9,6.5c-3.1,1.3-6.9,2-11.5,2c-3,0-6-0.3-8.9-0.9V99.4c1.7,0.6,3.4,0.8,5.3,0.8
					c2.4,0,4.4-0.6,5.8-1.8c1.5-1.2,2.2-2.9,2.2-5c0-1-0.2-2.1-0.5-3.3c-0.3-1.2-1.1-3.5-2.4-6.9l-15.5-42.5h18.6l5.1,17.6
					c2.2,8.2,4,15.5,5.3,22h0.2c1.5-7.4,3.2-14.8,5.3-22.1l4.9-17.5H509l-17.5,51.8C489.7,97.8,487.7,102,485.5,105z"/>
			</g>
		</g>
	</g>
</g>
</svg>
